<svg width="1440" height="96" viewBox="0 0 1440 96" fill="none" xmlns="http://www.w3.org/2000/svg">
<rect width="1440" height="96" fill="white"/>
<mask id="path-1-inside-1_1_6082" fill="white">
<path d="M127.192 48.7845C126.8 48.3954 126.8 47.7647 127.192 47.3757L130.853 43.7432C133.205 41.4091 137.019 41.4091 139.371 43.7432L143.031 47.3757C143.423 47.7647 143.423 48.3954 143.031 48.7845L139.371 52.4169C137.019 54.751 133.205 54.751 130.853 52.4169L127.192 48.7845Z"/>
</mask>
<path d="M127.192 48.7845C126.8 48.3954 126.8 47.7647 127.192 47.3757L130.853 43.7432C133.205 41.4091 137.019 41.4091 139.371 43.7432L143.031 47.3757C143.423 47.7647 143.423 48.3954 143.031 48.7845L139.371 52.4169C137.019 54.751 133.205 54.751 130.853 52.4169L127.192 48.7845Z" stroke="#3A3845" stroke-width="5" mask="url(#path-1-inside-1_1_6082)"/>
<mask id="path-2-inside-2_1_6082" fill="white">
<path d="M147.497 48.7845C147.105 48.3954 147.105 47.7647 147.497 47.3757L151.158 43.7432C153.51 41.4091 157.323 41.4091 159.675 43.7432L163.336 47.3757C163.728 47.7647 163.728 48.3954 163.336 48.7845L159.675 52.4169C157.323 54.751 153.51 54.751 151.158 52.4169L147.497 48.7845Z"/>
</mask>
<path d="M147.497 48.7845C147.105 48.3954 147.105 47.7647 147.497 47.3757L151.158 43.7432C153.51 41.4091 157.323 41.4091 159.675 43.7432L163.336 47.3757C163.728 47.7647 163.728 48.3954 163.336 48.7845L159.675 52.4169C157.323 54.751 153.51 54.751 151.158 52.4169L147.497 48.7845Z" stroke="#3A3845" stroke-width="5" mask="url(#path-2-inside-2_1_6082)"/>
<mask id="path-3-inside-3_1_6082" fill="white">
<path d="M144.554 30.1475C144.946 29.7585 145.581 29.7585 145.973 30.1475L149.634 33.78C151.986 36.1141 151.986 39.8984 149.634 42.2325L145.973 45.8649C145.581 46.254 144.946 46.254 144.554 45.8649L140.893 42.2325C138.541 39.8984 138.541 36.1141 140.893 33.78L144.554 30.1475Z"/>
</mask>
<path d="M144.554 30.1475C144.946 29.7585 145.581 29.7585 145.973 30.1475L149.634 33.78C151.986 36.1141 151.986 39.8984 149.634 42.2325L145.973 45.8649C145.581 46.254 144.946 46.254 144.554 45.8649L140.893 42.2325C138.541 39.8984 138.541 36.1141 140.893 33.78L144.554 30.1475Z" stroke="#3A3845" stroke-width="5" mask="url(#path-3-inside-3_1_6082)"/>
<mask id="path-4-inside-4_1_6082" fill="white">
<path d="M144.421 49.2952C144.813 48.9062 145.449 48.9062 145.841 49.2952L149.501 52.9277C151.853 55.2618 151.853 59.0461 149.501 61.3802L145.841 65.0126C145.449 65.4017 144.813 65.4017 144.421 65.0126L140.76 61.3802C138.408 59.0461 138.408 55.2618 140.76 52.9277L144.421 49.2952Z"/>
</mask>
<path d="M144.421 49.2952C144.813 48.9062 145.449 48.9062 145.841 49.2952L149.501 52.9277C151.853 55.2618 151.853 59.0461 149.501 61.3802L145.841 65.0126C145.449 65.4017 144.813 65.4017 144.421 65.0126L140.76 61.3802C138.408 59.0461 138.408 55.2618 140.76 52.9277L144.421 49.2952Z" stroke="#3A3845" stroke-width="5" mask="url(#path-4-inside-4_1_6082)"/>
<path d="M169.615 48C169.615 48.8711 169.237 49.6451 168.611 50.6248C168.516 50.7738 168.412 50.9308 168.304 51.0954C167.759 51.9199 167.091 52.933 166.746 54.0628C166.387 55.239 166.26 56.5447 166.149 57.6878C166.118 58.0017 166.089 58.3034 166.056 58.5868C165.892 60.0078 165.647 61.1026 165.032 61.9371C164.422 62.7658 163.441 63.3393 162.131 63.9355C161.873 64.0528 161.598 64.1726 161.312 64.2969C160.256 64.756 159.056 65.2779 158.065 65.9709C157.092 66.6517 156.373 67.6057 155.804 68.3618C155.708 68.4888 155.617 68.6102 155.529 68.7238C154.858 69.5914 154.323 70.1435 153.592 70.4014C152.506 70.7839 151.33 70.8026 149.946 70.6886C149.549 70.6559 149.12 70.6097 148.67 70.5613C147.647 70.4514 146.52 70.3302 145.432 70.3302C144.345 70.3302 143.217 70.4514 142.195 70.5613C141.745 70.6097 141.316 70.6559 140.919 70.6886C139.535 70.8026 138.358 70.7839 137.273 70.4014C136.284 70.0527 135.488 69.4342 134.634 68.6283C134.419 68.426 134.193 68.2027 133.955 67.9684C133.303 67.3256 132.567 66.5995 131.761 65.9952C130.961 65.3951 130.02 64.8742 129.173 64.4053C128.884 64.2454 128.606 64.0916 128.349 63.9427C127.26 63.3136 126.404 62.7131 125.832 61.9371C125.18 61.0512 124.831 59.8959 124.549 58.4853C124.473 58.1027 124.4 57.6891 124.325 57.2597C124.141 56.215 123.941 55.0767 123.632 54.0629C123.322 53.0466 122.814 52.1109 122.386 51.3215C122.272 51.1112 122.164 50.9112 122.067 50.7229C121.572 49.7675 121.25 48.9493 121.25 48C121.25 47.0858 121.662 46.0968 122.303 44.8974C122.422 44.6734 122.553 44.4378 122.688 44.1936C123.211 43.2509 123.804 42.1796 124.119 41.1493C124.47 39.9984 124.6 38.8367 124.71 37.8512C124.742 37.5649 124.772 37.2935 124.806 37.0415C124.963 35.8627 125.197 34.9266 125.832 34.0629C126.39 33.3059 127.224 32.7554 128.313 32.1732C128.539 32.0522 128.782 31.9275 129.035 31.7977C129.912 31.347 130.911 30.8343 131.761 30.1967C132.61 29.5601 133.374 28.7682 134.045 28.0719C134.259 27.8501 134.463 27.638 134.658 27.4437C135.521 26.5843 136.307 25.9391 137.273 25.5987C138.358 25.2161 139.535 25.1974 140.919 25.3114C141.316 25.3441 141.745 25.3903 142.195 25.4386C143.218 25.5486 144.345 25.6697 145.432 25.6697C146.52 25.6697 147.647 25.5486 148.67 25.4386C149.12 25.3903 149.549 25.3441 149.946 25.3114C151.33 25.1974 152.506 25.2161 153.592 25.5987C154.299 25.848 154.83 26.4191 155.51 27.3468C155.593 27.4605 155.68 27.5818 155.771 27.7086C156.343 28.5084 157.07 29.5247 158.065 30.2209C159.098 30.9429 160.416 31.4765 161.549 31.9349C161.819 32.0439 162.078 32.1486 162.32 32.2506C163.742 32.8501 164.599 33.3556 164.969 33.9677C165.445 34.7577 165.686 35.7407 165.904 37.0055C165.945 37.2432 165.986 37.4921 166.028 37.7496C166.197 38.7948 166.39 39.9833 166.746 41.1493C167.06 42.1796 167.654 43.2508 168.177 44.1936C168.312 44.4378 168.442 44.6734 168.562 44.8974C169.203 46.0968 169.615 47.0858 169.615 48Z" stroke="#3A3845" stroke-width="2.5"/>
<path d="M211.156 35.1505C211.305 35.1505 211.447 35.2206 211.553 35.3456C211.659 35.4706 211.719 35.6403 211.72 35.8179V59.9641C211.72 60.1416 211.661 60.312 211.557 60.4381C211.452 60.5642 211.31 60.6359 211.161 60.6375H208.407C208.258 60.6359 208.116 60.5642 208.011 60.4381C207.906 60.312 207.848 60.1416 207.848 59.9641V44.2569C207.631 44.4672 207.407 44.6695 207.177 44.8636C206.521 45.4096 205.855 45.8707 205.21 46.3196C204.565 46.7686 204.138 47.1205 203.629 47.4784C202.678 48.1344 201.85 49.0168 201.196 50.0709C200.542 51.125 200.076 52.3282 199.828 53.606C199.8 53.7547 199.731 53.8875 199.631 53.9824C199.531 54.0774 199.407 54.1286 199.279 54.1277H196.652C196.524 54.1286 196.4 54.0774 196.3 53.9824C196.2 53.8875 196.131 53.7547 196.103 53.606C195.855 52.3266 195.389 51.1219 194.734 50.0667C194.079 49.0115 193.249 48.1284 192.296 47.4724C191.788 47.1144 191.28 46.7201 190.716 46.3136C190.152 45.9071 189.405 45.4035 188.749 44.8575C188.519 44.6674 188.295 44.4652 188.078 44.2508V59.9641C188.078 60.1416 188.02 60.312 187.915 60.4381C187.81 60.5642 187.668 60.6359 187.519 60.6375H184.77C184.621 60.6359 184.479 60.5642 184.374 60.4381C184.27 60.312 184.211 60.1416 184.211 59.9641V35.8239C184.211 35.6453 184.27 35.474 184.376 35.3478C184.482 35.2215 184.625 35.1505 184.775 35.1505H187.494C187.626 35.1527 187.754 35.2104 187.854 35.3136C187.955 35.4167 188.021 35.5587 188.043 35.7147C188.195 36.8917 188.775 39.64 190.894 41.1749C191.453 41.5693 192.007 42.0122 192.617 42.4429C193.226 42.8737 193.821 43.268 194.4 43.7534C195.584 44.6923 196.642 45.8375 197.541 47.1508C197.592 47.2278 197.657 47.29 197.731 47.3328C197.805 47.3756 197.886 47.3979 197.968 47.3979C198.05 47.3979 198.131 47.3756 198.205 47.3328C198.279 47.29 198.344 47.2278 198.395 47.1508C199.292 45.8358 200.349 44.6886 201.531 43.7473C202.135 43.2619 202.766 42.8251 203.319 42.4368C203.873 42.0486 204.493 41.5693 205.037 41.1749C207.161 39.6643 207.741 36.9281 207.893 35.7147C207.915 35.5587 207.982 35.4167 208.082 35.3136C208.182 35.2104 208.31 35.1527 208.442 35.1505H211.156Z" fill="#3A3845"/>
<path d="M240.48 47.8941C240.48 54.9152 234.873 60.6376 227.976 60.6376C221.079 60.6376 215.472 54.9213 215.472 47.8941C215.472 40.867 221.079 35.1506 227.976 35.1506C234.873 35.1506 240.48 40.867 240.48 47.8941ZM227.976 39.7808C223.251 39.7808 219.408 43.4218 219.408 47.8941C219.408 52.3665 223.251 55.9771 227.976 55.9771C232.701 55.9771 236.549 52.3361 236.549 47.8699C236.549 43.4036 232.701 39.7808 227.976 39.7808Z" fill="#3A3845"/>
<path d="M269.239 47.8941C269.239 54.9152 263.352 60.6376 256.11 60.6376C248.868 60.6376 242.98 54.9213 242.98 47.8941C242.98 40.867 248.868 35.1506 256.11 35.1506C263.352 35.1506 269.239 40.867 269.239 47.8941ZM256.11 39.7808C251.148 39.7808 247.108 43.4218 247.108 47.8941C247.108 52.3665 251.148 55.9771 256.11 55.9771C261.071 55.9771 265.106 52.3361 265.106 47.8699C265.106 43.4036 261.055 39.7808 256.11 39.7808Z" fill="#3A3845"/>
<path d="M291.615 47.706V35.8182C291.615 35.7305 291.629 35.6437 291.658 35.5627C291.686 35.4817 291.727 35.4081 291.779 35.3461C291.831 35.2842 291.893 35.235 291.961 35.2014C292.029 35.1679 292.102 35.1506 292.175 35.1506H294.937C295.011 35.1506 295.084 35.1679 295.152 35.2014C295.22 35.235 295.281 35.2842 295.334 35.3461C295.386 35.4081 295.427 35.4817 295.455 35.5627C295.483 35.6437 295.498 35.7305 295.498 35.8182V59.9701C295.498 60.0578 295.483 60.1446 295.455 60.2256C295.427 60.3065 295.386 60.3801 295.334 60.4421C295.281 60.5041 295.22 60.5533 295.152 60.5868C295.084 60.6204 295.011 60.6376 294.937 60.6376H292.201C292.127 60.6376 292.054 60.6204 291.986 60.5868C291.918 60.5533 291.857 60.5041 291.804 60.4421C291.752 60.3801 291.711 60.3065 291.683 60.2256C291.655 60.1446 291.64 60.0578 291.64 59.9701V58.0707C291.643 57.4761 291.532 56.8887 291.314 56.3534C290.504 54.3994 288.41 50.7827 283.518 48.5677C281.451 47.6582 279.516 46.3727 277.78 44.7568C277.698 44.677 277.599 44.6267 277.494 44.6119C277.389 44.5971 277.282 44.6184 277.187 44.6732C277.092 44.728 277.011 44.8142 276.956 44.9214C276.9 45.0287 276.872 45.1526 276.873 45.2787V59.9701C276.873 60.1471 276.814 60.3169 276.709 60.4421C276.604 60.5673 276.461 60.6376 276.313 60.6376H273.551C273.402 60.6376 273.26 60.5673 273.154 60.4421C273.049 60.3169 272.99 60.1471 272.99 59.9701V35.8182C272.99 35.6411 273.049 35.4713 273.154 35.3461C273.26 35.221 273.402 35.1506 273.551 35.1506H276.236C276.348 35.1533 276.456 35.1958 276.547 35.2726C276.638 35.3495 276.707 35.4571 276.746 35.5815C277.189 37.0136 279.034 41.6498 284.868 44.2349C286.98 45.1545 288.943 46.4989 290.672 48.2097C290.753 48.2934 290.853 48.3475 290.959 48.3657C291.065 48.3839 291.174 48.3654 291.272 48.3124C291.369 48.2593 291.452 48.174 291.51 48.0665C291.568 47.959 291.599 47.8339 291.6 47.706H291.615Z" fill="#3A3845"/>
<path d="M299.249 58.089C299.249 57.5846 299.359 57.0916 299.565 56.6723C299.772 56.2531 300.065 55.9264 300.408 55.7337C300.751 55.541 301.128 55.4909 301.492 55.5897C301.856 55.6886 302.19 55.9319 302.453 56.289C302.715 56.6461 302.893 57.1008 302.965 57.5956C303.037 58.0904 302.999 58.603 302.856 59.0686C302.714 59.5342 302.472 59.9319 302.163 60.2112C301.854 60.4905 301.491 60.6389 301.12 60.6377C300.874 60.6377 300.63 60.5717 300.403 60.4435C300.176 60.3154 299.969 60.1275 299.795 59.8908C299.622 59.654 299.484 59.373 299.39 59.0638C299.296 58.7547 299.248 58.4234 299.249 58.089Z" fill="#3A3845"/>
<path d="M445.128 47.052V42.3H446.6V53.5H445.128V48.46H439.688V53.5H438.2V42.3H439.688V47.052H445.128ZM455.605 52.492C454.795 53.3027 453.797 53.708 452.613 53.708C451.429 53.708 450.432 53.3027 449.621 52.492C448.811 51.6813 448.405 50.684 448.405 49.5C448.405 48.316 448.811 47.3187 449.621 46.508C450.432 45.6973 451.429 45.292 452.613 45.292C453.797 45.292 454.795 45.6973 455.605 46.508C456.427 47.3293 456.837 48.3267 456.837 49.5C456.837 50.6733 456.427 51.6707 455.605 52.492ZM452.613 52.348C453.413 52.348 454.085 52.076 454.629 51.532C455.173 50.988 455.445 50.3107 455.445 49.5C455.445 48.6893 455.173 48.012 454.629 47.468C454.085 46.924 453.413 46.652 452.613 46.652C451.824 46.652 451.157 46.924 450.613 47.468C450.069 48.012 449.797 48.6893 449.797 49.5C449.797 50.3107 450.069 50.988 450.613 51.532C451.157 52.076 451.824 52.348 452.613 52.348ZM467.118 45.292C468.025 45.292 468.75 45.5853 469.294 46.172C469.849 46.7587 470.126 47.5427 470.126 48.524V53.5H468.734V48.572C468.734 47.964 468.574 47.4893 468.254 47.148C467.945 46.796 467.518 46.62 466.974 46.62C466.356 46.62 465.87 46.828 465.518 47.244C465.177 47.6493 465.006 48.252 465.006 49.052V53.5H463.614V48.572C463.614 47.964 463.46 47.4893 463.15 47.148C462.852 46.796 462.441 46.62 461.918 46.62C461.31 46.62 460.814 46.8333 460.43 47.26C460.057 47.676 459.87 48.2733 459.87 49.052V53.5H458.478V45.5H459.87V46.572C460.414 45.7187 461.209 45.292 462.254 45.292C463.332 45.292 464.116 45.7453 464.606 46.652C465.161 45.7453 465.998 45.292 467.118 45.292ZM479.736 50.14H473.032C473.171 50.844 473.496 51.3987 474.008 51.804C474.52 52.1987 475.16 52.396 475.928 52.396C476.984 52.396 477.752 52.0067 478.232 51.228L479.416 51.9C478.627 53.1053 477.454 53.708 475.896 53.708C474.638 53.708 473.603 53.3133 472.792 52.524C472.003 51.7133 471.608 50.7053 471.608 49.5C471.608 48.284 471.998 47.2813 472.776 46.492C473.555 45.692 474.563 45.292 475.8 45.292C476.974 45.292 477.928 45.708 478.664 46.54C479.411 47.3507 479.784 48.3427 479.784 49.516C479.784 49.7187 479.768 49.9267 479.736 50.14ZM475.8 46.604C475.064 46.604 474.446 46.812 473.944 47.228C473.454 47.644 473.15 48.2093 473.032 48.924H478.376C478.259 48.188 477.966 47.6173 477.496 47.212C477.027 46.8067 476.462 46.604 475.8 46.604Z" fill="#3A3845"/>
<mask id="path-12-inside-5_1_6082" fill="white">
<path d="M509 34.5H572V61.5H509V34.5Z"/>
</mask>
<path d="M572 60.5H509V62.5H572V60.5Z" fill="#C69B7B" mask="url(#path-12-inside-5_1_6082)"/>
<path d="M525.816 53.708C524.771 53.708 523.875 53.468 523.128 52.988C522.392 52.4973 521.875 51.82 521.576 50.956L522.856 50.22C523.283 51.5747 524.28 52.252 525.848 52.252C526.606 52.252 527.187 52.0973 527.592 51.788C528.008 51.4787 528.216 51.0573 528.216 50.524C528.216 50.0013 528.014 49.6013 527.608 49.324C527.246 49.0787 526.568 48.796 525.576 48.476L524.504 48.124C524.27 48.028 523.96 47.8893 523.576 47.708C523.203 47.516 522.931 47.324 522.76 47.132C522.291 46.62 522.056 45.996 522.056 45.26C522.056 44.2787 522.398 43.5107 523.08 42.956C523.763 42.38 524.595 42.092 525.576 42.092C526.451 42.092 527.219 42.3107 527.88 42.748C528.542 43.1853 529.038 43.7827 529.368 44.54L528.12 45.26C527.64 44.108 526.792 43.532 525.576 43.532C524.968 43.532 524.478 43.6813 524.104 43.98C523.731 44.2787 523.544 44.684 523.544 45.196C523.544 45.6867 523.72 46.06 524.072 46.316C524.435 46.5827 525.043 46.8493 525.896 47.116L526.552 47.324C526.915 47.4627 527.112 47.5373 527.144 47.548C527.486 47.676 527.859 47.852 528.264 48.076C528.552 48.236 528.84 48.4813 529.128 48.812C529.502 49.1853 529.688 49.7453 529.688 50.492C529.688 51.4733 529.331 52.2573 528.616 52.844C527.891 53.42 526.958 53.708 525.816 53.708ZM535.29 45.292C536.229 45.292 536.981 45.5907 537.546 46.188C538.112 46.7747 538.394 47.5747 538.394 48.588V53.5H537.002V48.668C537.002 48.028 536.826 47.5267 536.474 47.164C536.122 46.8013 535.637 46.62 535.018 46.62C534.304 46.62 533.738 46.844 533.322 47.292C532.906 47.7293 532.698 48.3853 532.698 49.26V53.5H531.306V42.3H532.698V46.652C533.253 45.7453 534.117 45.292 535.29 45.292ZM547.09 52.492C546.279 53.3027 545.282 53.708 544.098 53.708C542.914 53.708 541.916 53.3027 541.106 52.492C540.295 51.6813 539.89 50.684 539.89 49.5C539.89 48.316 540.295 47.3187 541.106 46.508C541.916 45.6973 542.914 45.292 544.098 45.292C545.282 45.292 546.279 45.6973 547.09 46.508C547.911 47.3293 548.322 48.3267 548.322 49.5C548.322 50.6733 547.911 51.6707 547.09 52.492ZM544.098 52.348C544.898 52.348 545.57 52.076 546.114 51.532C546.658 50.988 546.93 50.3107 546.93 49.5C546.93 48.6893 546.658 48.012 546.114 47.468C545.57 46.924 544.898 46.652 544.098 46.652C543.308 46.652 542.642 46.924 542.098 47.468C541.554 48.012 541.282 48.6893 541.282 49.5C541.282 50.3107 541.554 50.988 542.098 51.532C542.642 52.076 543.308 52.348 544.098 52.348ZM554.379 45.292C555.499 45.292 556.453 45.7027 557.243 46.524C558.032 47.3453 558.427 48.3373 558.427 49.5C558.427 50.6733 558.032 51.6707 557.243 52.492C556.464 53.3027 555.509 53.708 554.379 53.708C553.056 53.708 552.048 53.18 551.355 52.124V56.7H549.963V45.5H551.355V46.876C552.048 45.82 553.056 45.292 554.379 45.292ZM554.203 52.364C555.003 52.364 555.675 52.092 556.219 51.548C556.763 50.9827 557.035 50.3 557.035 49.5C557.035 48.6893 556.763 48.012 556.219 47.468C555.675 46.9133 555.003 46.636 554.203 46.636C553.392 46.636 552.715 46.9133 552.171 47.468C551.627 48.012 551.355 48.6893 551.355 49.5C551.355 50.3 551.627 50.9827 552.171 51.548C552.715 52.092 553.392 52.364 554.203 52.364Z" fill="#C69B7B"/>
<path d="M610.16 53.5H608.576L607.664 50.988H602.624L601.712 53.5H600.128L604.304 42.3H605.984L610.16 53.5ZM605.136 44.076L603.136 49.596H607.152L605.136 44.076ZM615.754 45.292C616.874 45.292 617.828 45.7027 618.618 46.524C619.407 47.3453 619.802 48.3373 619.802 49.5C619.802 50.6733 619.407 51.6707 618.618 52.492C617.839 53.3027 616.884 53.708 615.754 53.708C614.431 53.708 613.423 53.18 612.73 52.124V53.5H611.338V42.3H612.73V46.876C613.423 45.82 614.431 45.292 615.754 45.292ZM615.578 52.364C616.378 52.364 617.05 52.092 617.594 51.548C618.138 50.9827 618.41 50.3 618.41 49.5C618.41 48.6893 618.138 48.012 617.594 47.468C617.05 46.9133 616.378 46.636 615.578 46.636C614.767 46.636 614.09 46.9133 613.546 47.468C613.002 48.012 612.73 48.6893 612.73 49.5C612.73 50.3 613.002 50.9827 613.546 51.548C614.09 52.092 614.767 52.364 615.578 52.364ZM628.215 52.492C627.404 53.3027 626.407 53.708 625.223 53.708C624.039 53.708 623.041 53.3027 622.231 52.492C621.42 51.6813 621.015 50.684 621.015 49.5C621.015 48.316 621.42 47.3187 622.231 46.508C623.041 45.6973 624.039 45.292 625.223 45.292C626.407 45.292 627.404 45.6973 628.215 46.508C629.036 47.3293 629.447 48.3267 629.447 49.5C629.447 50.6733 629.036 51.6707 628.215 52.492ZM625.223 52.348C626.023 52.348 626.695 52.076 627.239 51.532C627.783 50.988 628.055 50.3107 628.055 49.5C628.055 48.6893 627.783 48.012 627.239 47.468C626.695 46.924 626.023 46.652 625.223 46.652C624.433 46.652 623.767 46.924 623.223 47.468C622.679 48.012 622.407 48.6893 622.407 49.5C622.407 50.3107 622.679 50.988 623.223 51.532C623.767 52.076 624.433 52.348 625.223 52.348ZM636.608 49.74V45.5H638V53.5H636.608V52.348C636.053 53.2547 635.189 53.708 634.016 53.708C633.077 53.708 632.325 53.4147 631.76 52.828C631.194 52.2307 630.912 51.4253 630.912 50.412V45.5H632.304V50.332C632.304 50.972 632.48 51.4733 632.832 51.836C633.184 52.1987 633.669 52.38 634.288 52.38C635.002 52.38 635.568 52.1613 635.984 51.724C636.4 51.276 636.608 50.6147 636.608 49.74ZM644.471 45.5V46.844H642.343V51.18C642.343 51.5747 642.418 51.8573 642.567 52.028C642.727 52.188 642.967 52.2733 643.287 52.284C643.607 52.284 644.002 52.2733 644.471 52.252V53.5C643.244 53.66 642.348 53.5587 641.783 53.196C641.228 52.8333 640.951 52.1613 640.951 51.18V46.844H639.367V45.5H640.951V43.676L642.343 43.26V45.5H644.471Z" fill="#3A3845"/>
<path d="M692.464 53.708C690.758 53.708 689.355 53.148 688.256 52.028C687.158 50.9187 686.608 49.5427 686.608 47.9C686.608 46.2573 687.158 44.8813 688.256 43.772C689.355 42.652 690.758 42.092 692.464 42.092C693.478 42.092 694.416 42.3373 695.28 42.828C696.144 43.3187 696.816 43.98 697.296 44.812L696 45.564C695.68 44.9453 695.2 44.4547 694.56 44.092C693.931 43.7187 693.232 43.532 692.464 43.532C691.163 43.532 690.107 43.948 689.296 44.78C688.486 45.6013 688.08 46.6413 688.08 47.9C688.08 49.148 688.486 50.1827 689.296 51.004C690.107 51.836 691.163 52.252 692.464 52.252C693.232 52.252 693.931 52.0707 694.56 51.708C695.2 51.3347 695.68 50.844 696 50.236L697.296 50.972C696.827 51.804 696.16 52.4707 695.296 52.972C694.443 53.4627 693.499 53.708 692.464 53.708ZM705.558 52.492C704.748 53.3027 703.75 53.708 702.566 53.708C701.382 53.708 700.385 53.3027 699.574 52.492C698.764 51.6813 698.358 50.684 698.358 49.5C698.358 48.316 698.764 47.3187 699.574 46.508C700.385 45.6973 701.382 45.292 702.566 45.292C703.75 45.292 704.748 45.6973 705.558 46.508C706.38 47.3293 706.79 48.3267 706.79 49.5C706.79 50.6733 706.38 51.6707 705.558 52.492ZM702.566 52.348C703.366 52.348 704.038 52.076 704.582 51.532C705.126 50.988 705.398 50.3107 705.398 49.5C705.398 48.6893 705.126 48.012 704.582 47.468C704.038 46.924 703.366 46.652 702.566 46.652C701.777 46.652 701.11 46.924 700.566 47.468C700.022 48.012 699.75 48.6893 699.75 49.5C699.75 50.3107 700.022 50.988 700.566 51.532C701.11 52.076 701.777 52.348 702.566 52.348ZM712.415 45.292C713.354 45.292 714.106 45.5907 714.671 46.188C715.237 46.7747 715.519 47.5747 715.519 48.588V53.5H714.127V48.668C714.127 48.028 713.951 47.5267 713.599 47.164C713.247 46.8013 712.762 46.62 712.143 46.62C711.429 46.62 710.863 46.844 710.447 47.292C710.031 47.7293 709.823 48.3853 709.823 49.26V53.5H708.431V45.5H709.823V46.652C710.378 45.7453 711.242 45.292 712.415 45.292ZM721.815 45.5V46.844H719.687V51.18C719.687 51.5747 719.761 51.8573 719.911 52.028C720.071 52.188 720.311 52.2733 720.631 52.284C720.951 52.284 721.345 52.2733 721.815 52.252V53.5C720.588 53.66 719.692 53.5587 719.127 53.196C718.572 52.8333 718.295 52.1613 718.295 51.18V46.844H716.711V45.5H718.295V43.676L719.687 43.26V45.5H721.815ZM729.68 46.876V45.5H731.072V53.5H729.68V52.124C728.998 53.18 727.99 53.708 726.656 53.708C725.526 53.708 724.571 53.3027 723.792 52.492C723.003 51.6707 722.608 50.6733 722.608 49.5C722.608 48.3373 723.003 47.3453 723.792 46.524C724.582 45.7027 725.536 45.292 726.656 45.292C727.99 45.292 728.998 45.82 729.68 46.876ZM726.832 52.364C727.643 52.364 728.32 52.092 728.864 51.548C729.408 50.9827 729.68 50.3 729.68 49.5C729.68 48.6893 729.408 48.012 728.864 47.468C728.32 46.9133 727.643 46.636 726.832 46.636C726.032 46.636 725.36 46.9133 724.816 47.468C724.272 48.012 724 48.6893 724 49.5C724 50.3 724.272 50.9827 724.816 51.548C725.36 52.092 726.032 52.364 726.832 52.364ZM736.941 53.708C735.736 53.708 734.733 53.308 733.933 52.508C733.133 51.6973 732.733 50.6947 732.733 49.5C732.733 48.3053 733.133 47.308 733.933 46.508C734.733 45.6973 735.736 45.292 736.941 45.292C737.731 45.292 738.44 45.484 739.069 45.868C739.699 46.2413 740.168 46.748 740.477 47.388L739.309 48.06C739.107 47.6333 738.792 47.292 738.365 47.036C737.949 46.78 737.475 46.652 736.941 46.652C736.141 46.652 735.469 46.924 734.925 47.468C734.392 48.0227 734.125 48.7 734.125 49.5C734.125 50.2893 734.392 50.9613 734.925 51.516C735.469 52.06 736.141 52.332 736.941 52.332C737.475 52.332 737.955 52.2093 738.381 51.964C738.808 51.708 739.133 51.3667 739.357 50.94L740.541 51.628C740.189 52.268 739.693 52.7747 739.053 53.148C738.413 53.5213 737.709 53.708 736.941 53.708ZM746.268 45.5V46.844H744.14V51.18C744.14 51.5747 744.215 51.8573 744.364 52.028C744.524 52.188 744.764 52.2733 745.084 52.284C745.404 52.284 745.799 52.2733 746.268 52.252V53.5C745.041 53.66 744.145 53.5587 743.58 53.196C743.025 52.8333 742.748 52.1613 742.748 51.18V46.844H741.164V45.5H742.748V43.676L744.14 43.26V45.5H746.268Z" fill="#3A3845"/>
<rect x="832.5" y="26.5" width="319" height="43" rx="3.5" fill="white"/>
<rect x="832.5" y="26.5" width="319" height="43" rx="3.5" stroke="#E5E5E5"/>
<g clip-path="url(#clip0_1_6082)">
<path d="M862.5 56.5L858.104 52.1034M845.5 46.8276C845.5 42.7807 848.781 39.5 852.828 39.5C856.875 39.5 860.156 42.7807 860.156 46.8276C860.156 50.8745 856.875 54.1552 852.828 54.1552C848.781 54.1552 845.5 50.8745 845.5 46.8276Z" stroke="#A6A6A8" stroke-width="1.59375" stroke-linecap="round" stroke-linejoin="round"/>
</g>
<path d="M876.2 51.668C875.304 51.668 874.534 51.458 873.89 51.038C873.256 50.6087 872.812 50.0207 872.56 49.274L873.4 48.784C873.578 49.4 873.904 49.876 874.38 50.212C874.866 50.548 875.477 50.716 876.214 50.716C876.933 50.716 877.498 50.5573 877.908 50.24C878.319 49.9227 878.524 49.4933 878.524 48.952C878.524 48.4387 878.338 48.0513 877.964 47.79C877.6 47.5287 876.984 47.258 876.116 46.978C875.08 46.6327 874.408 46.362 874.1 46.166C873.354 45.718 872.98 45.0693 872.98 44.22C872.98 43.3893 873.27 42.736 873.848 42.26C874.418 41.7747 875.132 41.532 875.99 41.532C876.728 41.532 877.381 41.728 877.95 42.12C878.52 42.5027 878.944 43.0113 879.224 43.646L878.398 44.108C877.95 43.0253 877.148 42.484 875.99 42.484C875.374 42.484 874.88 42.638 874.506 42.946C874.142 43.2447 873.96 43.6553 873.96 44.178C873.96 44.6727 874.128 45.0367 874.464 45.27C874.81 45.5127 875.365 45.76 876.13 46.012L876.886 46.278C877.045 46.3247 877.269 46.4087 877.558 46.53C877.876 46.6513 878.095 46.754 878.216 46.838C878.711 47.1367 879.024 47.412 879.154 47.664C879.388 48.0373 879.504 48.4573 879.504 48.924C879.504 49.7547 879.201 50.422 878.594 50.926C877.988 51.4207 877.19 51.668 876.2 51.668ZM884.418 44.332C885.463 44.332 886.298 44.7007 886.924 45.438C887.568 46.166 887.89 47.0293 887.89 48.028C887.89 48.0747 887.88 48.2193 887.862 48.462H881.716C881.809 49.162 882.108 49.722 882.612 50.142C883.116 50.562 883.746 50.772 884.502 50.772C885.566 50.772 886.317 50.3753 886.756 49.582L887.568 50.058C887.26 50.562 886.835 50.9587 886.294 51.248C885.762 51.528 885.16 51.668 884.488 51.668C883.386 51.668 882.49 51.3227 881.8 50.632C881.109 49.9413 880.764 49.064 880.764 48C880.764 46.9453 881.104 46.0727 881.786 45.382C882.467 44.682 883.344 44.332 884.418 44.332ZM884.418 45.228C883.69 45.228 883.078 45.4427 882.584 45.872C882.098 46.3013 881.809 46.866 881.716 47.566H886.938C886.835 46.8193 886.55 46.2453 886.084 45.844C885.598 45.4333 885.043 45.228 884.418 45.228ZM895.379 45.872V44.5H896.303V51.5H895.379V50.128C894.735 51.1547 893.793 51.668 892.551 51.668C891.553 51.668 890.699 51.3133 889.989 50.604C889.289 49.8947 888.939 49.0267 888.939 48C888.939 46.9733 889.289 46.1053 889.989 45.396C890.699 44.6867 891.553 44.332 892.551 44.332C893.793 44.332 894.735 44.8453 895.379 45.872ZM890.661 49.974C891.193 50.506 891.847 50.772 892.621 50.772C893.396 50.772 894.049 50.506 894.581 49.974C895.113 49.4233 895.379 48.7653 895.379 48C895.379 47.2253 895.113 46.572 894.581 46.04C894.049 45.4987 893.396 45.228 892.621 45.228C891.847 45.228 891.193 45.4987 890.661 46.04C890.129 46.572 889.863 47.2253 889.863 48C889.863 48.7653 890.129 49.4233 890.661 49.974ZM899.184 44.5V45.662C899.613 44.8127 900.35 44.388 901.396 44.388V45.284C900.724 45.284 900.187 45.48 899.786 45.872C899.384 46.2547 899.184 46.8333 899.184 47.608V51.5H898.26V44.5H899.184ZM905.5 51.668C904.446 51.668 903.568 51.318 902.868 50.618C902.168 49.8993 901.818 49.0267 901.818 48C901.818 46.964 902.168 46.096 902.868 45.396C903.568 44.6867 904.446 44.332 905.5 44.332C906.191 44.332 906.812 44.5 907.362 44.836C907.913 45.1627 908.314 45.606 908.566 46.166L907.81 46.6C907.624 46.18 907.32 45.8487 906.9 45.606C906.49 45.354 906.023 45.228 905.5 45.228C904.726 45.228 904.072 45.4987 903.54 46.04C903.008 46.572 902.742 47.2253 902.742 48C902.742 48.7653 903.008 49.4233 903.54 49.974C904.072 50.506 904.726 50.772 905.5 50.772C906.014 50.772 906.476 50.6507 906.886 50.408C907.306 50.1653 907.633 49.8293 907.866 49.4L908.636 49.848C908.347 50.408 907.922 50.8513 907.362 51.178C906.802 51.5047 906.182 51.668 905.5 51.668ZM913.239 44.332C914.079 44.332 914.746 44.5933 915.241 45.116C915.736 45.6293 915.983 46.3247 915.983 47.202V51.5H915.059V47.202C915.059 46.5767 914.891 46.0913 914.555 45.746C914.228 45.4007 913.762 45.228 913.155 45.228C912.455 45.228 911.9 45.4473 911.489 45.886C911.088 46.3247 910.887 46.9733 910.887 47.832V51.5H909.963V41.7H910.887V45.592C911.41 44.752 912.194 44.332 913.239 44.332ZM922.404 42.344C922.404 42.5307 922.338 42.6893 922.208 42.82C922.077 42.9507 921.918 43.016 921.732 43.016C921.545 43.016 921.386 42.9507 921.256 42.82C921.125 42.6893 921.06 42.5307 921.06 42.344C921.06 42.1573 921.125 41.9987 921.256 41.868C921.386 41.7373 921.545 41.672 921.732 41.672C921.918 41.672 922.077 41.7373 922.208 41.868C922.338 41.9987 922.404 42.1573 922.404 42.344ZM922.194 51.5H921.27V44.5H922.194V51.5ZM927.864 44.5V45.396H925.848V49.638C925.848 50.0207 925.923 50.296 926.072 50.464C926.222 50.6227 926.446 50.7067 926.744 50.716C927.043 50.716 927.416 50.7067 927.864 50.688V51.5C926.866 51.6493 926.124 51.5793 925.638 51.29C925.162 50.9913 924.924 50.4407 924.924 49.638V45.396H923.454V44.5H924.924V42.82L925.848 42.54V44.5H927.864ZM932.214 44.332C933.26 44.332 934.095 44.7007 934.72 45.438C935.364 46.166 935.686 47.0293 935.686 48.028C935.686 48.0747 935.677 48.2193 935.658 48.462H929.512C929.606 49.162 929.904 49.722 930.408 50.142C930.912 50.562 931.542 50.772 932.298 50.772C933.362 50.772 934.114 50.3753 934.552 49.582L935.364 50.058C935.056 50.562 934.632 50.9587 934.09 51.248C933.558 51.528 932.956 51.668 932.284 51.668C931.183 51.668 930.287 51.3227 929.596 50.632C928.906 49.9413 928.56 49.064 928.56 48C928.56 46.9453 928.901 46.0727 929.582 45.382C930.264 44.682 931.141 44.332 932.214 44.332ZM932.214 45.228C931.486 45.228 930.875 45.4427 930.38 45.872C929.895 46.3013 929.606 46.866 929.512 47.566H934.734C934.632 46.8193 934.347 46.2453 933.88 45.844C933.395 45.4333 932.84 45.228 932.214 45.228ZM944.618 44.332C945.412 44.332 946.046 44.584 946.522 45.088C946.998 45.592 947.236 46.2733 947.236 47.132V51.5H946.312V47.132C946.312 46.5347 946.158 46.068 945.85 45.732C945.542 45.396 945.127 45.228 944.604 45.228C943.998 45.228 943.522 45.4287 943.176 45.83C942.831 46.2313 942.658 46.8287 942.658 47.622V51.5H941.734V47.132C941.734 46.5253 941.59 46.0587 941.3 45.732C941.011 45.396 940.61 45.228 940.096 45.228C939.508 45.228 939.023 45.4333 938.64 45.844C938.267 46.2547 938.08 46.8473 938.08 47.622V51.5H937.156V44.5H938.08V45.522C938.584 44.7287 939.298 44.332 940.222 44.332C941.24 44.332 941.949 44.7567 942.35 45.606C942.854 44.7567 943.61 44.332 944.618 44.332ZM950.423 50.87C950.423 51.0847 950.349 51.2667 950.199 51.416C950.05 51.5653 949.868 51.64 949.653 51.64C949.439 51.64 949.257 51.5653 949.107 51.416C948.958 51.2667 948.883 51.0847 948.883 50.87C948.883 50.6553 948.958 50.4733 949.107 50.324C949.257 50.1747 949.439 50.1 949.653 50.1C949.868 50.1 950.05 50.1747 950.199 50.324C950.349 50.4733 950.423 50.6553 950.423 50.87ZM953.65 50.87C953.65 51.0847 953.575 51.2667 953.426 51.416C953.277 51.5653 953.095 51.64 952.88 51.64C952.665 51.64 952.483 51.5653 952.334 51.416C952.185 51.2667 952.11 51.0847 952.11 50.87C952.11 50.6553 952.185 50.4733 952.334 50.324C952.483 50.1747 952.665 50.1 952.88 50.1C953.095 50.1 953.277 50.1747 953.426 50.324C953.575 50.4733 953.65 50.6553 953.65 50.87ZM956.877 50.87C956.877 51.0847 956.802 51.2667 956.653 51.416C956.503 51.5653 956.321 51.64 956.107 51.64C955.892 51.64 955.71 51.5653 955.561 51.416C955.411 51.2667 955.337 51.0847 955.337 50.87C955.337 50.6553 955.411 50.4733 955.561 50.324C955.71 50.1747 955.892 50.1 956.107 50.1C956.321 50.1 956.503 50.1747 956.653 50.324C956.802 50.4733 956.877 50.6553 956.877 50.87Z" fill="#A6A6A8"/>
<path fill-rule="evenodd" clip-rule="evenodd" d="M1227.99 42.4113C1226.3 40.5082 1223.46 39.9963 1221.33 41.7389C1219.2 43.4816 1218.9 46.3952 1220.58 48.4563L1227.99 55.3275L1235.41 48.4563C1237.09 46.3952 1236.82 43.4633 1234.66 41.7389C1232.49 40.0146 1229.69 40.5082 1227.99 42.4113Z" stroke="#3A3845" stroke-width="1.5" stroke-linecap="round" stroke-linejoin="round"/>
<g clip-path="url(#clip1_1_6082)">
<path d="M1261.98 41.4491H1278.27L1275.95 51.3045C1275.65 52.5841 1274.51 53.4885 1273.19 53.4885H1267.35C1266.06 53.4885 1264.94 52.6231 1264.61 51.3806L1261.98 41.4491ZM1261.98 41.4491L1260.92 37.2H1257.73" stroke="#3A3845" stroke-width="1.5" stroke-linecap="round" stroke-linejoin="round"/>
<path d="M1265.17 58.7999C1265.95 58.7999 1266.59 58.1658 1266.59 57.3836C1266.59 56.6013 1265.95 55.9672 1265.17 55.9672C1264.39 55.9672 1263.75 56.6013 1263.75 57.3836C1263.75 58.1658 1264.39 58.7999 1265.17 58.7999Z" fill="#3A3845"/>
<path d="M1275.08 58.7999C1275.87 58.7999 1276.5 58.1658 1276.5 57.3836C1276.5 56.6013 1275.87 55.9672 1275.08 55.9672C1274.3 55.9672 1273.67 56.6013 1273.67 57.3836C1273.67 58.1658 1274.3 58.7999 1275.08 58.7999Z" fill="#3A3845"/>
</g>
<path d="M1308 46.8827C1310.67 46.8827 1312.84 44.7152 1312.84 42.0413C1312.84 39.3675 1310.67 37.2 1308 37.2C1305.33 37.2 1303.16 39.3675 1303.16 42.0413C1303.16 44.7152 1305.33 46.8827 1308 46.8827Z" stroke="#3A3845" stroke-width="1.5" stroke-linecap="round" stroke-linejoin="round"/>
<path d="M1300.33 58.7999H1315.68C1317.38 58.7999 1318.69 57.3372 1317.89 55.8331C1316.72 53.6206 1314.06 50.9792 1308 50.9792C1301.94 50.9792 1299.28 53.6206 1298.11 55.8331C1297.31 57.3372 1298.62 58.7999 1300.33 58.7999Z" stroke="#3A3845" stroke-width="1.5" stroke-linecap="round" stroke-linejoin="round"/>
<defs>
<clipPath id="clip0_1_6082">
<rect width="20" height="20" fill="white" transform="translate(844 38)"/>
</clipPath>
<clipPath id="clip1_1_6082">
<rect width="24" height="24" fill="white" transform="translate(1256 36)"/>
</clipPath>
</defs>
</svg>
