<svg width="23" height="23" viewBox="0 0 23 23" fill="none" xmlns="http://www.w3.org/2000/svg">
<path d="M5.48066 5.44913H21.7693L19.4504 15.3045C19.1492 16.5841 18.0075 17.4885 16.6929 17.4885H10.8481C9.56274 17.4885 8.4385 16.6231 8.10959 15.3806L5.48066 5.44913ZM5.48066 5.44913L4.41836 1.19995H1.23145" stroke="white" stroke-width="1.5" stroke-linecap="round" stroke-linejoin="round"/>
<path d="M9.4129 21.3836C9.4129 21.7945 9.07978 22.1276 8.66885 22.1276C8.25791 22.1276 7.92479 21.7945 7.92479 21.3836C7.92479 20.9726 8.25791 20.6395 8.66885 20.6395C9.07978 20.6395 9.4129 20.9726 9.4129 21.3836Z" fill="white" stroke="white" stroke-width="1.3447"/>
<path d="M18.5844 22.7999C19.3666 22.7999 20.0008 22.1658 20.0008 21.3836C20.0008 20.6013 19.3666 19.9672 18.5844 19.9672C17.8021 19.9672 17.168 20.6013 17.168 21.3836C17.168 22.1658 17.8021 22.7999 18.5844 22.7999Z" fill="white"/>
</svg>
